# MagicaVoxel @ Ephtracy

# group
o 

# material
mtllib Arbor.mtl
usemtl palette

# normals
vn -1 0 0
vn 1 0 0
vn 0 0 1
vn 0 0 -1
vn 0 -1 0
vn 0 1 0

# texcoords
vt 0.958984 0.5
vt 0.970703 0.5
vt 0.994141 0.5

# verts
v -2 0 2
v -2 0 -2
v -2 0.8 2
v -2 0.8 1.8
v -2 0.8 -1.8
v -2 0.8 -2
v -2 3.3 1.8
v -2 3.3 -1.8
v -2 3.4 2
v -2 3.4 -2
v -1.8 3.4 1.8
v -1.8 3.4 -1.8
v -1.8 3.5 1.8
v -1.8 3.5 -1.8
v -1.6 3.5 1.6
v -1.6 3.5 -1.6
v -1.6 3.6 1.6
v -1.6 3.6 -1.6
v -1.4 3.6 1.4
v -1.4 3.6 -1.4
v -1.4 3.7 1.4
v -1.4 3.7 -1.4
v -1.2 3.7 1.2
v -1.2 3.7 -1.2
v -1.2 3.8 1.2
v -1.2 3.8 -1.2
v -1 3.8 1
v -1 3.8 -1
v -1 3.9 1
v -1 3.9 -1
v -0.8 3.9 0.8
v -0.8 3.9 -0.8
v -0.8 4 0.8
v -0.8 4 -0.8
v 1.8 0.8 2
v 1.8 0.8 1.8
v 1.8 0.8 -1.8
v 1.8 0.8 -2
v 1.8 1 1.8
v 1.8 1 -1.8
v 1.8 1.1 1.8
v 1.8 1.1 -1.8
v 1.8 1.2 1.8
v 1.8 1.2 -1.8
v 1.8 1.3 1.8
v 1.8 1.3 -1.8
v 1.8 1.4 1.8
v 1.8 1.4 -1.8
v 1.8 1.5 1.8
v 1.8 1.5 -1.8
v 1.8 3.3 2
v 1.8 3.3 1.8
v 1.8 3.3 -1.8
v 1.8 3.3 -2
v -1.8 0.8 2
v -1.8 0.8 1.8
v -1.8 0.8 -1.8
v -1.8 0.8 -2
v -1.8 3.3 2
v -1.8 3.3 1.8
v -1.8 3.3 -1.8
v -1.8 3.3 -2
v 0.8 3.9 0.8
v 0.8 3.9 -0.8
v 0.8 4 0.8
v 0.8 4 -0.8
v 1 3.8 1
v 1 3.8 -1
v 1 3.9 1
v 1 3.9 -1
v 1.2 3.7 1.2
v 1.2 3.7 -1.2
v 1.2 3.8 1.2
v 1.2 3.8 -1.2
v 1.4 3.6 1.4
v 1.4 3.6 -1.4
v 1.4 3.7 1.4
v 1.4 3.7 -1.4
v 1.6 3.5 1.6
v 1.6 3.5 -1.6
v 1.6 3.6 1.6
v 1.6 3.6 -1.6
v 1.8 3.4 1.8
v 1.8 3.4 -1.8
v 1.8 3.5 1.8
v 1.8 3.5 -1.8
v 2 0 2
v 2 0 -2
v 2 0.8 2
v 2 0.8 1.8
v 2 0.8 -1.8
v 2 0.8 -2
v 2 1 1.8
v 2 1 -1.8
v 2 1.1 1.8
v 2 1.1 -1.8
v 2 1.2 1.8
v 2 1.2 -1.8
v 2 1.3 1.8
v 2 1.3 -1.8
v 2 1.4 1.8
v 2 1.4 -1.8
v 2 1.5 1.8
v 2 1.5 -1.8
v 2 3.3 1.8
v 2 3.3 -1.8
v 2 3.4 2
v 2 3.4 -2
v -2 0 2
v -2 0.8 2
v -2 3.4 2
v -1.8 0.8 2
v -1.8 3.3 2
v 1.8 0.8 2
v 1.8 3.3 2
v 2 0 2
v 2 0.8 2
v 2 3.4 2
v -1.8 3.4 1.8
v -1.8 3.5 1.8
v 1.8 3.4 1.8
v 1.8 3.5 1.8
v -1.6 3.5 1.6
v -1.6 3.6 1.6
v 1.6 3.5 1.6
v 1.6 3.6 1.6
v -1.4 3.6 1.4
v -1.4 3.7 1.4
v 1.4 3.6 1.4
v 1.4 3.7 1.4
v -1.2 3.7 1.2
v -1.2 3.8 1.2
v 1.2 3.7 1.2
v 1.2 3.8 1.2
v -1 3.8 1
v -1 3.9 1
v 1 3.8 1
v 1 3.9 1
v -0.8 3.9 0.8
v -0.8 4 0.8
v 0.8 3.9 0.8
v 0.8 4 0.8
v -2 0.8 -1.8
v -2 3.3 -1.8
v -1.8 0.8 -1.8
v -1.8 3.3 -1.8
v 1.8 0.8 -1.8
v 1.8 1 -1.8
v 1.8 1.1 -1.8
v 1.8 1.2 -1.8
v 1.8 1.3 -1.8
v 1.8 1.4 -1.8
v 1.8 1.5 -1.8
v 1.8 3.3 -1.8
v 2 0.8 -1.8
v 2 1 -1.8
v 2 1.1 -1.8
v 2 1.2 -1.8
v 2 1.3 -1.8
v 2 1.4 -1.8
v 2 1.5 -1.8
v 2 3.3 -1.8
v -2 0.8 1.8
v -2 3.3 1.8
v -1.8 0.8 1.8
v -1.8 3.3 1.8
v 1.8 0.8 1.8
v 1.8 1 1.8
v 1.8 1.1 1.8
v 1.8 1.2 1.8
v 1.8 1.3 1.8
v 1.8 1.4 1.8
v 1.8 1.5 1.8
v 1.8 3.3 1.8
v 2 0.8 1.8
v 2 1 1.8
v 2 1.1 1.8
v 2 1.2 1.8
v 2 1.3 1.8
v 2 1.4 1.8
v 2 1.5 1.8
v 2 3.3 1.8
v -0.8 3.9 -0.8
v -0.8 4 -0.8
v 0.8 3.9 -0.8
v 0.8 4 -0.8
v -1 3.8 -1
v -1 3.9 -1
v 1 3.8 -1
v 1 3.9 -1
v -1.2 3.7 -1.2
v -1.2 3.8 -1.2
v 1.2 3.7 -1.2
v 1.2 3.8 -1.2
v -1.4 3.6 -1.4
v -1.4 3.7 -1.4
v 1.4 3.6 -1.4
v 1.4 3.7 -1.4
v -1.6 3.5 -1.6
v -1.6 3.6 -1.6
v 1.6 3.5 -1.6
v 1.6 3.6 -1.6
v -1.8 3.4 -1.8
v -1.8 3.5 -1.8
v 1.8 3.4 -1.8
v 1.8 3.5 -1.8
v -2 0 -2
v -2 0.8 -2
v -2 3.4 -2
v -1.8 0.8 -2
v -1.8 3.3 -2
v -1 0 -2
v -1 0.8 -2
v 1 0 -2
v 1 0.8 -2
v 1.8 0.8 -2
v 1.8 3.3 -2
v 2 0 -2
v 2 0.8 -2
v 2 3.4 -2
v -2 0 2
v 2 0 2
v -1 0 1
v 1 0 1
v -2 0 -2
v -1 0 -2
v 1 0 -2
v 2 0 -2
v 1.8 1 1.8
v 2 1 1.8
v 1.8 1 -1.8
v 2 1 -1.8
v 1.8 1.2 1.8
v 2 1.2 1.8
v 1.8 1.2 -1.8
v 2 1.2 -1.8
v 1.8 1.4 1.8
v 2 1.4 1.8
v 1.8 1.4 -1.8
v 2 1.4 -1.8
v -1.8 3.3 2
v 1.8 3.3 2
v -2 3.3 1.8
v -1.8 3.3 1.8
v 1.8 3.3 1.8
v 2 3.3 1.8
v -2 3.3 -1.8
v -1.8 3.3 -1.8
v 1.8 3.3 -1.8
v 2 3.3 -1.8
v -1.8 3.3 -2
v 1.8 3.3 -2
v -1.8 0.8 2
v 1.8 0.8 2
v -2 0.8 1.8
v -1.8 0.8 1.8
v 1.8 0.8 1.8
v 2 0.8 1.8
v -1 0.8 1
v 1 0.8 1
v -2 0.8 -1.8
v -1.8 0.8 -1.8
v 1.8 0.8 -1.8
v 2 0.8 -1.8
v -1.8 0.8 -2
v -1 0.8 -2
v 1 0.8 -2
v 1.8 0.8 -2
v 1.8 1.1 1.8
v 2 1.1 1.8
v 1.8 1.1 -1.8
v 2 1.1 -1.8
v 1.8 1.3 1.8
v 2 1.3 1.8
v 1.8 1.3 -1.8
v 2 1.3 -1.8
v 1.8 1.5 1.8
v 2 1.5 1.8
v 1.8 1.5 -1.8
v 2 1.5 -1.8
v -2 3.4 2
v 2 3.4 2
v -1.8 3.4 1.8
v 1.8 3.4 1.8
v -1.8 3.4 -1.8
v 1.8 3.4 -1.8
v -2 3.4 -2
v 2 3.4 -2
v -1.8 3.5 1.8
v 1.8 3.5 1.8
v -1.6 3.5 1.6
v 1.6 3.5 1.6
v -1.6 3.5 -1.6
v 1.6 3.5 -1.6
v -1.8 3.5 -1.8
v 1.8 3.5 -1.8
v -1.6 3.6 1.6
v 1.6 3.6 1.6
v -1.4 3.6 1.4
v 1.4 3.6 1.4
v -1.4 3.6 -1.4
v 1.4 3.6 -1.4
v -1.6 3.6 -1.6
v 1.6 3.6 -1.6
v -1.4 3.7 1.4
v 1.4 3.7 1.4
v -1.2 3.7 1.2
v 1.2 3.7 1.2
v -1.2 3.7 -1.2
v 1.2 3.7 -1.2
v -1.4 3.7 -1.4
v 1.4 3.7 -1.4
v -1.2 3.8 1.2
v 1.2 3.8 1.2
v -1 3.8 1
v 1 3.8 1
v -1 3.8 -1
v 1 3.8 -1
v -1.2 3.8 -1.2
v 1.2 3.8 -1.2
v -1 3.9 1
v 1 3.9 1
v -0.8 3.9 0.8
v 0.8 3.9 0.8
v -0.8 3.9 -0.8
v 0.8 3.9 -0.8
v -1 3.9 -1
v 1 3.9 -1
v -0.8 4 0.8
v 0.8 4 0.8
v -0.8 4 -0.8
v 0.8 4 -0.8

# faces
f 3/1/1 2/1/1 1/1/1
f 4/1/1 2/1/1 3/1/1
f 5/1/1 2/1/1 4/1/1
f 6/1/1 2/1/1 5/1/1
f 7/3/1 4/3/1 3/3/1
f 8/3/1 6/3/1 5/3/1
f 9/3/1 7/3/1 3/3/1
f 9/3/1 8/3/1 7/3/1
f 10/3/1 6/3/1 8/3/1
f 10/3/1 8/3/1 9/3/1
f 13/3/1 12/3/1 11/3/1
f 14/3/1 12/3/1 13/3/1
f 17/3/1 16/3/1 15/3/1
f 18/3/1 16/3/1 17/3/1
f 21/3/1 20/3/1 19/3/1
f 22/3/1 20/3/1 21/3/1
f 25/3/1 24/3/1 23/3/1
f 26/3/1 24/3/1 25/3/1
f 29/3/1 28/3/1 27/3/1
f 30/3/1 28/3/1 29/3/1
f 33/3/1 32/3/1 31/3/1
f 34/3/1 32/3/1 33/3/1
f 39/3/1 36/3/1 35/3/1
f 40/3/1 38/3/1 37/3/1
f 41/3/1 39/3/1 35/3/1
f 41/3/1 40/3/1 39/3/1
f 42/3/1 38/3/1 40/3/1
f 42/3/1 40/3/1 41/3/1
f 43/3/1 41/3/1 35/3/1
f 44/3/1 38/3/1 42/3/1
f 45/3/1 43/3/1 35/3/1
f 45/3/1 44/3/1 43/3/1
f 46/3/1 38/3/1 44/3/1
f 46/3/1 44/3/1 45/3/1
f 47/3/1 45/3/1 35/3/1
f 48/3/1 38/3/1 46/3/1
f 49/3/1 47/3/1 35/3/1
f 49/3/1 48/3/1 47/3/1
f 50/3/1 38/3/1 48/3/1
f 50/3/1 48/3/1 49/3/1
f 51/3/1 49/3/1 35/3/1
f 52/3/1 49/3/1 51/3/1
f 53/3/1 38/3/1 50/3/1
f 54/3/1 38/3/1 53/3/1
f 55/3