# MagicaVoxel @ Ephtracy

# group
o 

# material
mtllib Wall.mtl
usemtl palette

# normals
vn -1 0 0
vn 1 0 0
vn 0 0 1
vn 0 0 -1
vn 0 -1 0
vn 0 1 0

# texcoords
vt 0.958984 0.5
vt 0.970703 0.5
vt 0.978516 0.5
vt 0.986328 0.5

# verts
v -2 0 2
v -2 0 1
v -2 0 -1
v -2 0 -2
v -2 0.8 2
v -2 0.8 1
v -2 0.8 0.4
v -2 0.8 -0.4
v -2 0.8 -1
v -2 0.8 -2
v -2 1.6 0.4
v -2 1.6 -0.4
v -1.9 1.6 0.4
v -1.9 1.6 -0.4
v -1.9 1.7 0.4
v -1.9 1.7 -0.4
v -1.8 1.7 0.4
v -1.8 1.7 -0.4
v -1.8 1.8 0.4
v -1.8 1.8 -0.4
v -1.7 1.8 0.4
v -1.7 1.8 -0.4
v -1.7 1.9 0.4
v -1.7 1.9 -0.4
v -1.6 1.9 0.4
v -1.6 1.9 -0.4
v -1.6 2 0.4
v -1.6 2 -0.4
v -1.5 2 0.4
v -1.5 2 -0.4
v -1.5 2.1 0.4
v -1.5 2.1 -0.4
v -1.4 2.1 0.4
v -1.4 2.1 -0.4
v -1.4 2.2 0.4
v -1.4 2.2 -0.4
v -0.6 1.7 0.4
v -0.6 1.7 -0.4
v -0.6 1.8 0.4
v -0.6 1.8 -0.4
v -0.5 1.2 0.4
v -0.5 1.2 -0.4
v -0.5 1.7 0.4
v -0.5 1.7 -0.4
v 0.8 1.7 0.4
v 0.8 1.7 -0.4
v 0.8 1.8 0.4
v 0.8 1.8 -0.4
v 0.9 1.2 0.4
v 0.9 1.2 -0.4
v 0.9 1.7 0.4
v 0.9 1.7 -0.4
v -0.9 1.2 0.4
v -0.9 1.2 -0.4
v -0.9 1.7 0.4
v -0.9 1.7 -0.4
v -0.8 1.7 0.4
v -0.8 1.7 -0.4
v -0.8 1.8 0.4
v -0.8 1.8 -0.4
v 0.5 1.2 0.4
v 0.5 1.2 -0.4
v 0.5 1.7 0.4
v 0.5 1.7 -0.4
v 0.6 1.7 0.4
v 0.6 1.7 -0.4
v 0.6 1.8 0.4
v 0.6 1.8 -0.4
v 1.4 2.1 0.4
v 1.4 2.1 -0.4
v 1.4 2.2 0.4
v 1.4 2.2 -0.4
v 1.5 2 0.4
v 1.5 2 -0.4
v 1.5 2.1 0.4
v 1.5 2.1 -0.4
v 1.6 1.9 0.4
v 1.6 1.9 -0.4
v 1.6 2 0.4
v 1.6 2 -0.4
v 1.7 1.8 0.4
v 1.7 1.8 -0.4
v 1.7 1.9 0.4
v 1.7 1.9 -0.4
v 1.8 1.7 0.4
v 1.8 1.7 -0.4
v 1.8 1.8 0.4
v 1.8 1.8 -0.4
v 1.9 1.6 0.4
v 1.9 1.6 -0.4
v 1.9 1.7 0.4
v 1.9 1.7 -0.4
v 2 0 2
v 2 0 1
v 2 0 -1
v 2 0 -2
v 2 0.8 2
v 2 0.8 1
v 2 0.8 0.4
v 2 0.8 -0.4
v 2 0.8 -1
v 2 0.8 -2
v 2 1.6 0.4
v 2 1.6 -0.4
v -2 0 2
v -2 0.8 2
v 2 0 2
v 2 0.8 2
v -2 0.8 0.4
v -2 1.6 0.4
v -1.9 0.8 0.4
v -1.9 1.5 0.4
v -1.9 1.6 0.4
v -1.9 1.7 0.4
v -1.8 1.5 0.4
v -1.8 1.6 0.4
v -1.8 1.7 0.4
v -1.8 1.8 0.4
v -1.7 1.6 0.4
v -1.7 1.7 0.4
v -1.7 1.8 0.4
v -1.7 1.9 0.4
v -1.6 1.7 0.4
v -1.6 1.8 0.4
v -1.6 1.9 0.4
v -1.6 2 0.4
v -1.5 1.8 0.4
v -1.5 1.9 0.4
v -1.5 2 0.4
v -1.5 2.1 0.4
v -1.4 1.9 0.4
v -1.4 2 0.4
v -1.4 2.1 0.4
v -1.4 2.2 0.4
v -1.3 2 0.4
v -1.3 2.1 0.4
v -1 1.1 0.4
v -1 1.8 0.4
v -0.9 1.2 0.4
v -0.9 1.7 0.4
v -0.9 1.8 0.4
v -0.9 1.9 0.4
v -0.8 1.7 0.4
v -0.8 1.8 0.4
v -0.6 1.7 0.4
v -0.6 1.8 0.4
v -0.5 1.2 0.4
v -0.5 1.7 0.4
v -0.5 1.8 0.4
v -0.5 1.9 0.4
v -0.4 1.1 0.4
v -0.4 1.8 0.4
v 0.4 1.1 0.4
v 0.4 1.8 0.4
v 0.5 1.2 0.4
v 0.5 1.7 0.4
v 0.5 1.8 0.4
v 0.5 1.9 0.4
v 0.6 1.7 0.4
v 0.6 1.8 0.4
v 0.8 1.7 0.4
v 0.8 1.8 0.4
v 0.9 1.2 0.4
v 0.9 1.7 0.4
v 0.9 1.8 0.4
v 0.9 1.9 0.4
v 1 1.1 0.4
v 1 1.8 0.4
v 1.3 2 0.4
v 1.3 2.1 0.4
v 1.4 1.9 0.4
v 1.4 2 0.4
v 1.4 2.1 0.4
v 1.4 2.2 0.4
v 1.5 1.8 0.4
v 1.5 1.9 0.4
v 1.5 2 0.4
v 1.5 2.1 0.4
v 1.6 1.7 0.4
v 1.6 1.8 0.4
v 1.6 1.9 0.4
v 1.6 2 0.4
v 1.7 1.6 0.4
v 1.7 1.7 0.4
v 1.7 1.8 0.4
v 1.7 1.9 0.4
v 1.8 1.5 0.4
v 1.8 1.6 0.4
v 1.8 1.7 0.4
v 1.8 1.8 0.4
v 1.9 0.8 0.4
v 1.9 1.5 0.4
v 1.9 1.6 0.4
v 1.9 1.7 0.4
v 2 0.8 0.4
v 2 1.6 0.4
v -2 0.8 -0.4
v -2 1.6 -0.4
v -1.9 0.8 -0.4
v -1.9 1.5 -0.4
v -1.9 1.6 -0.4
v -1.9 1.7 -0.4
v -1.8 1.5 -0.4
v -1.8 1.6 -0.4
v -1.8 1.7 -0.4
v -1.8 1.8 -0.4
v -1.7 1.6 -0.4
v -1.7 1.7 -0.4
v -1.7 1.8 -0.4
v -1.7 1.9 -0.4
v -1.6 1.7 -0.4
v -1.6 1.8 -0.4
v -1.6 1.9 -0.4
v -1.6 2 -0.4
v -1.5 1.8 -0.4
v -1.5 1.9 -0.4
v -1.5 2 -0.4
v -1.5 2.1 -0.4
v -1.4 1.9 -0.4
v -1.4 2 -0.4
v -1.4 2.1 -0.4
v -1.4 2.2 -0.4
v -1.3 2 -0.4
v -1.3 2.1 -0.4
v -1 1.1 -0.4
v -1 1.8 -0.4
v -0.9 1.2 -0.4
v -0.9 1.7 -0.4
v -0.9 1.8 -0.4
v -0.9 1.9 -0.4
v -0.8 1.7 -0.4
v -0.8 1.8 -0.4
v -0.6 1.7 -0.4
v -0.6 1.8 -0.4
v -0.5 1.2 -0.4
v -0.5 1.7 -0.4
v -0.5 1.8 -0.4
v -0.5 1.9 -0.4
v -0.4 1.1 -0.4
v -0.4 1.8 -0.4
v 0.4 1.1 -0.4
v 0.4 1.8 -0.4
v 0.5 1.2 -0.4
v 0.5 1.7 -0.4
v 0.5 1.8 -0.4
v 0.5 1.9 -0.4
v 0.6 1.7 -0.4
v 0.6 1.8 -0.4
v 0.8 1.7 -0.4
v 0.8 1.8 -0.4
v 0.9 1.2 -0.4
v 0.9 1.7 -0.4
v 0.9 1.8 -0.4
v 0.9 1.9 -0.4
v 1 1.1 -0.4
v 1 1.8 -0.4
v 1.3 2 -0.4
v 1.3 2.1 -0.4
v 1.4 1.9 -0.4
v 1.4 2 -0.4
v 1.4 2.1 -0.4
v 1.4 2.2 -0.4
v 1.5 1.8 -0.4
v 1.5 1.9 -0.4
v 1.5 2 -0.4
v 1.5 2.1 -0.4
v 1.6 1.7 -0.4
v 1.6 1.8 -0.4
v 1.6 1.9 -0.4
v 1.6 2 -0.4
v 1.7 1.6 -0.4
v 1.7 1.7 -0.4
v 1.7 1.8 -0.4
v 1.7 1.9 -0.4
v 1.8 1.5 -0.4
v 1.8 1.6 -0.4
v 1.8 1.7 -0.4
v 1.8 1.8 -0.4
v 1.9 0.8 -0.4
v 1.9 1.5 -0.4
v 1.9 1.6 -0.4
v 1.9 1.7 -0.4
v 2 0.8 -0.4
v 2 1.6 -0.4
v -2 0 -2
v -2 0.8 -2
v 2 0 -2
v 2 0.8 -2
v -2 0 2
v 2 0 2
v -2 0 1
v 2 0 1
v -2 0 -1
v 2 0 -1
v -2 0 -2
v 2 0 -2
v -0.9 1.7 0.4
v -0.8 1.7 0.4
v -0.6 1.7 0.4
v -0.5 1.7 0.4
v 0.5 1.7 0.4
v 0.6 1.7 0.4
v 0.8 1.7 0.4
v 0.9 1.7 0.4
v -0.9 1.7 -0.4
v -0.8 1.7 -0.4
v -0.6 1.7 -0.4
v -0.5 1.7 -0.4
v 0.5 1.7 -0.4
v 0.6 1.7 -0.4
v 0.8 1.7 -0.4
v 0.9 1.7 -0.4
v -0.8 1.8 0.4
v -0.6 1.8 0.4
v 0.6 1.8 0.4
v 0.8 1.8 0.4
v -0.8 1.8 -0.4
v -0.6 1.8 -0.4
v 0.6 1.8 -0.4
v 0.8 1.8 -0.4
v -2 0.8 2
v 2 0.8 2
v -2 0.8 1
v 2 0.8 1
v -2 0.8 0.4
v -1.9 0.8 0.4
v 1.9 0.8 0.4
v 2 0.8 0.4
v -2 0.8 -0.4
v -1.9 0.8 -0.4
v 1.9 0.8 -0.4
v 2 0.8 -0.4
v -2 0.8 -1
v 2 0.8 -1
v -2 0.8 -2
v 2 0.8 -2
v -0.9 1.2 0.4
v -0.5 1.2 0.4
v 0.5 1.2 0.4
v 0.9 1.2 0.4
v -0.9 1.2 -0.4
v -0.5 1.2 -0.4
v 0.5 1.2 -0.4
v 0.9 1.2 -0.4
v -2 1.6 0.4
v -1.9 1.6 0.4
v 1.9 1.6 0.4
v 2 1.6 0.4
v -2 1.6 -0.4
v -1.9 1.6 -0.4
v 1.9 1.6 -0.4
v 2 1.6 -0.4
v -1.9 1.7 0.4
v -1.8 1.7 0.4
v 1.8 1.7 0.4
v 1.9 1.7 0.4
v -1.9 1.7 -0.4
v -1.8 1.7 -0.4
v 1.8 1.7 -0.4
v 1.9 1.7 -0.4
v -1.8 1.8 0.4
v -1.7 1.8 0.4
v 1.7 1.8 0.4
v 1.8 1.8 0.4
v -1.8 1.8 -0.4
v -1.7 1.8 -0.4
v 1.7 1.8 -0.4
v 1.8 1.8 -0.4
v -1.7 1.9 0.4
v -1.6 1.9 0.4
v 1.6 1.9 0.4
v 1.7 1.9 0.4
v -1.7 1.9 -0.4
v -1.6 1.9 -0.4
v 1.6 1.9 -0.4
v 1.7 1.9 -0.4
v -1.6 2 0.4
v -1.5 2 0.4
v 1.5 2 0.4
v 1.6 2 0.4
v -1.6 2 -0.4
v -1.5 2 -0.4
v 1.5 2 -0.4
v 1.6 2 -0.4
v -1.5 2.1 0.4
v -1.4 2.1 0.4
v 1.4 2.1 0.4
v 1.5 2.1 0.4
v -1.5 2.1 -0.4
v -1.4 2.1 -0.4
v 1.4 2.1 -0.4
v 1.5 2.1 -0.4
v -1.4 2.2 0.4
v 1.4 2.2 0.4
v -1.4 2.2 -0.4
v 1.4 2.2 -0.4

# faces
f 5/1/1 2/1/1 1/1/1
f 6/2/1 3/2/1 2/2/1
f 6/1/1 2/1/1 5/1/1
f 7/2/1 3/2/1 6/2/1
f 8/2/1 3/2/1 7/2/1
f 9/1/1 4/1/1 3/1/1
f 9/2/1 3/2/1 8/2/1
f 10/1/1 4/1/1 9/1/1
f 11/3/1 8/3/1 7/3/1
f 12/3/1 8/3/1 11/3/1
f 15/3/1 14/3/1 13/3/1
f 16/3/1 14/3/1 15/3/1
f 19/3/1 18/3/1 17/3/1
f 20/3/1 18/3/1 19/3/1
f 23/3/1 22/3/1 21/3/1
f 24/3/1 22/3/1 23/3/1
f 27/3/1 26/3/1 25/3/1
f 28/3/1 26/3/1 27/3/1
f 31/3/1 30/3/1 29/3/1
f 32/3/1 30/3/1 31/3/1
f 35/3/1 34/3/1 33/3/1
f 36/3/1 34/3/1 35/3/1
f 39/3/1 38/3/1 37/3/1
f 40/3/1 38/3/1 39/3/1
f 43/3/1 42/3/1 41/3/1
f 44/3/1 42/3/1 43/3/1
f 47/3/1 46/3/1 45/3/1
f 48/3/1 46/3/1 47/3/1
f 51/3/1 50/3/1 49/3/1
f 52/3/1 50/3/1 51/3/1
f 53/3/2 54/3/2 55/3/2
f 55/3/2 54/3/2 56/3/2
f 57/3/2 58/3/2 59/3/2
f 59/3/2 58/3/2 60/3/2
f 61/3/2 62/3/2 63/3/2
f 63/3/2 62/3/2 64/3/2
f 65/3/2 66/3/2 67/3/2
f 67/3/2 66/3/2 68/3/2
f 69/3/2 70/3/2 71/3/2
f 71/3/2 70/3/2 72/3/2
f 73/3/2 74/3/2 75/3/2
f 75/3/2 74/3/2 76/3/2
f 77/3/2 78/3/2 79/3/2
f 79/3/2 78/3/2 80/3/2
f 81/3/2 82/3/2 83/3/2
f 83/3/2 82/3/2 84/3/2
f 85/3/2 86/3/2 87/3/2
f 87/3/2 86/3/2 88/3/2
f 89/3/2 90/3/2 91/3/2
f 91/3/2 90/3/2 92/3/2
f 93/1/2 94/1/2 97/1/2
f 94/2/2 95/2/2 98/2/2
f 97/1/2 94/1/2 98/1/2
f 98/2/2 95/2/2 99/2/2
f 99/2/2 95/2/2 100/2/2
f 95/1/2 96/1/2 101/1/2
f 100/2/2 95/2/2 101/2/2
f 101/1/2 96/1/2 102/1/2
f 99/3/2 100/3/2 103/3/2
f 103/3/2 100/3/2 104/3/2
f 107/1/3 106/1/3 105/1/3
f 108/1/3 106/1/3 107/1/3
f 111/3/3 110/3/3 109/3/3
f 112/3/3 110/3/3 111/3/3
f 113/3/3 110/3/3 112/3/3
f 115/4/3 112/4/3 111/4/3
f 115/3/3 114/3/3 113/3/3
f 115/3/3 113/3/3 112/3/3
f 116/3/3 114/3/3 115/3/3
f 117/3/3 114/3/3 116/3/3
f 119/4/3 116/4/3 115/4/3
f 119/3/3 118/3/3 117/3/3
f 119/3/3 117/3/3 116/3/3
f 120/3/3 118/3/3 119/3/3
f 121/3/3 118/3/3 120/3/3
f 123/4/3 120/4/3 119/4/3
f 123/3/3 122/3/3 121/3/3
f 123/3/3 121/3/3 120/3/3
f 124/3/3 122/3/3 123/3/3
f 125/3/3 122/3/3 124/3/3
f 127/4/3 124/4/3 123/4/3
f 127/3/3 126/3/3 125/3/3
f 127/3/3 125/3/3 124/3/3
f 128/3/3 126/3/3 127/3/3
f 129/3/3 126/3/3 128/3/3
f 131/4/3 128/4/3 127/4/3
f 131/3/3 130/3/3 129/3/3
f 131/3/3 129/3/3 128/3/3
f 132/3/3 130/3/3 131/3/3
f 133/3/3 130/3/3 132/3/3
f 135/4/3 132/4/3 131/4/3
f 135/3/3 134/3/3 133/3/3
f 135/3/3 133/3/3 132/3/3
f 136/3/3 134/3/3 135/3/3
f 137/4/3 115/4/3 111/4/3
f 137/4/3 119/4/3 115/4/3
f 137/4/3 136/4/3 135/4/3
f 137/4/3 135/4/3 131/4/3
f 137/4/3 131/4/3 127/4/3
f 137/4/3 127/4/3 123/4/3
f 137/4/3 123/4/3 119/4/3
f 138/4/3 136/4/3 137/4/3
f 139/3/3 138/3/3 137/3/3
f 140/3/3 138/3/3 139/3/3
f 141/4/3 136/4/3 138/4/3
f 141/3/3 138/3/3 140/3/3
f 142/4/3 136/4/3 141/4/3
f 143/3/3 141/3/3 140/3/3
f 143/3/3 142/3/3 141/3/3
f 144/3/3 142/3/3 143/3/3
f 146/3/3 142/3/3 144/3/3
f 147/3/3 139/3/3 137/3/3
f 148/3/3 146/3/3 145/3/3
f 149/3/3 142/3/3 146/3/3
f 149/3/3 146/3/3 148/3/3
f 150/4/3 136/4/3 142/4/3
f 