# MagicaVoxel @ Ephtracy

# group
o 

# material
mtllib Wall.mtl
usemtl palette

# normals
vn -1 0 0
vn 1 0 0
vn 0 0 1
vn 0 0 -1
vn 0 -1 0
vn 0 1 0

# texcoords
vt 0.958984 0.5
vt 0.970703 0.5
vt 0.978516 0.5
vt 0.986328 0.5

# verts
v -2 0 2
v -2 0 1
v -2 0 -1
v -2 0 -2
v -2 0.8 2
v -2 0.8 1
v -2 0.8 0.4
v -2 0.8 -0.4
v -2 0.8 -1
v -2 0.8 -2
v -2 1.6 0.4
v -2 1.6 -0.4
v -1.9 1.6 0.4
v -1.9 1.6 -0.4
v -1.9 1.7 0.4
v -1.9 1.7 -0.4
v -1.8 1.7 0.4
v -1.8 1.7 -0.4
v -1.8 1.8 0.4
v -1.8 1.8 -0.4
v -1.7 1.8 0.4
v -1.7 1.8 -0.4
v -1.7 1.9 0.4
v -1.7 1.9 -0.4
v -1.6 1.9 0.4
v -1.6 1.9 -0.4
v -1.6 2 0.4
v -1.6 2 -0.4
v -1.5 2 0.4
v -1.5 2 -0.4
v -1.5 2.1 0.4
v -1.5 2.1 -0.4
v -1.4 2.1 0.4
v -1.4 2.1 -0.4
v -1.4 2.2 0.4
v -1.4 2.2 -0.4
v -0.6 1.7 0.4
v -0.6 1.7 -0.4
v -0.6 1.8 0.4
v -0.6 1.8 -0.4
v -0.5 1.2 0.4
v -0.5 1.2 -0.4
v -0.5 1.7 0.4
v -0.5 1.7 -0.4
v 0.8 1.7 0.4
v 0.8 1.7 -0.4
v 0.8 1.8 0.4
v 0.8 1.8 -0.4
v 0.9 1.2 0.4
v 0.9 1.2 -0.4
v 0.9 1.7 0.4
v 0.9 1.7 -0.4
v -0.9 1.2 0.4
v -0.9 1.2 -0.4
v -0.9 1.7 0.4
v -0.9 1.7 -0.4
v -0.8 1.7 0.4
v -0.8 1.7 -0.4
v -0.8 1.8 0.4
v -0.8 1.8 -0.4
v 0.5 1.2 0.4
v 0.5 1.2 -0.4
v 0.5 1.7 0.4
v 0.5 1.7 -0.4
v 0.6 1.7 0.4
v 0.6 1.7 -0.4
v 0.6 1.8 0.4
v 0.6 1.8 -0.4
v 1.4 2.1 0.4
v 1.4 2.1 -0.4
v 1.4 2.2 0.4
v 1.4 2.2 -0.4
v 1.5 2 0.4
v 1.5 2 -0.4
v 1.5 2.1 0.4
v 1.5 2.1 -0.4
v 1.6 1.9 0.4
v 1.6 1.9 -0.4
v 1.6 2 0.4
v 1.6 2 -0.4
v 1.7 1.8 0.4
v 1.7 1.8 -0.4
v 1.7 1.9 0.4
v 1.7 1.9 -0.4
v 1.8 1.7 0.4
v 1.8 1.7 -0.4
v 1.8 1.8 0.4
v 1.8 1.8 -0.4
v 1.9 1.6 0.4
v 1.9 1.6 -0.4
v 1.9 1.7 0.4
v 1.9 1.7 -0.4
v 2 0 2
v 2 0 1
v 2 0 -1
v 2 0 -2
v 2 0.8 2
v 2 0.8 1
v 2 0.8 0.4
v 2 0.8 -0.4
v 2 0.8 -1
v 2 0.8 -2
v 2 1.6 0.4
v 2 1.6 -0.4
v -2 0 2
v -2 0.8 2
v 2 0 2
v 2 0.8 2
v -2 0.8 0.4
v -2 1.6 0.4
v -1.9 0.8 0.4
v -1.9 1.5 0.4
v -1.9 1.6 0.4
v -1.9 1.7 0.4
v -1.8 1.5 0.4
v -1.8 1.6 0.4
v -1.8 1.7 0.4
v -1.8 1.8 0.4
v -1.7 1.6 0.4
v -1.7 1.7 0.4
v -1.7 1.8 0.4
v -1.7 1.9 0.4
v -1.6 1.7 0.4
v -1.6 1.8 0.4
v -1.6 1.9 0.4
v -1.6 2 0.4
v -1.5 1.8 0.4
v -1.5 1.9 0.4
v -1.5 2 0.4
v -1.5 2.1 0.4
v -1.4 1.9 0.4
v -1.4 2 0.4
v -1.4 2.1 0.4
v -1.4 2.2 0.4
v -1.3 2 0.4
v -1.3 2.1 0.4
v -1 1.1 0.4
v -1 1.8 0.4
v -0.9 1.2 0.4
v -0.9 1.7 0.4
v -0.9 1.8 0.4
v -0.9 1.9 0.4
v -0.8 1.7 0.4
v -0.8 1.8 0.4
v -0.6 1.7 0.4
v -0.6 1.8 0.4
v -0.5 1.2 0.4
v -0.5 1.7 0.4
v -0.5 1.8 0.4
v -0.5 1.9 0.4
v -0.4 1.1 0.4
v -0.4 1.8 0.4
v 0.4 1.1 0.4
v 0.4 1.8 0.4
v 0.5 1.2 0.4
v 0.5 1.7 0.4
v 0.5 1.8 0.4
v 0.5 1.9 0.4
v 0.6 1.7 0.4
v 0.6 1.8 0.4
v 0.8 1.7 0.4
v 0.8 1.8 0.4
v 0.9 1.2 0.4
v 0.9 1.7 0.4
v 0.9 1.8 0.4
v 0.9 1.9 0.4
v 1 1.1 0.4
v 1 1.8 0.4
v 1.3 2 0.4
v 1.3 2.1 0.4
v 1.4 1.9 0.4
v 1.4 2 0.4
v 1.4 2.1 0.4
v 1.4 2.2 0.4
v 1.5 1.8 0.4
v 1.5 1.9 0.4
v 1.5 2 0.4
v 1.5 2.1 0.4
v 1.6 1.7 0.4
v 1.6 1.8 0.4
v 1.6 1.9 0.4
v 1.6 2 0.4
v 1.7 1.6 0.4
v 1.7 1.7 0.4
v 1.7 1.8 0.4
v 1.7 1.9 0.4
v 1.8 1.5 0.4
v 1.8 1.6 0.4
v 1.8 1.7 0.4
v 1.8 1.8 0.4
v 1.9 0.8 0.4
v 1.9 1.5 0.4
v 1.9 1.6 0.4
v 1.9 1.7 0.4
v 2 0.8 0.4
v 2 1.6 0.4
v -2 0.8 -0.4
v -2 1.6 -0.4
v -1.9 0.8 -0.4
v -1.9 1.5 -0.4
v -1.9 1.6 -0.4
v -1.9 1.7 -0.4
v -1.8 1.5 -0.4
v -1.8 1.6 -0.4
v -1.8 1.7 -0.4
v -1.8 1.8 -0.4
v -1.7 1.6 -0.4
v -1.7 1.7 -0.4
v -1.7 1.8 -0.4
v -1.7 1.9 -0.4
v -1.6 1.7 -0.4
v -1.6 1.8 -0.4
v -1.6 1.9 -0.4
v -1.6 2 -0.4
v -1.5 1.8 -0.4
v -1.5 1.9 -0.4
v -1.5 2 -0.4
v -1.5 2.1 -0.4
v -1.4 1.9 -0.4
v -1.4 2 -0.4
v -1.4 2.1 -0.4
v -1.4 2.2 -0.4
v -1.3 2 -0.4
v -1.3 2.1 -0.4
v -1 1.1 -0.4
v -1 1.8 -0.4
v -0.9 1.2 -0.4
v -0.9 1.7 -0.4
v -0.9 1.8 -0.4
v -0.9 1.9 -0.4
v -0.8 1.7 -0.4
v -0.8 1.8 -0.4
v -0.6 1.7 -0.4
v -0.6 1.8 -0.4
v -0.5 1.2 -0.4
v -0.5 1.7 -0.4
v -0.5 1.8 -0.4
v -0.5 1.9 -0.4
v -0.4 1.1 -0.4
v -0.4 1.8 -0.4
v 0.4 1.1 -0.4
v 0.4 1.8 -0.4
v 0.5 1.2 -0.4
v 0.5 1.7 -0.4
v 0.5 1.8 -0.4
v 0.5 1.9 -0.4
v 0.6 1.7 -0.4
v 0.6 1.8 -0.4
v 0.8 1.7 -0.4
v 0.8 1.8 -0.4
v 0.9 1.2 -0.4
v 0.9 1.7 -0.4
v 0.9 1.8 -0.4
v 0.9 1.9 -0.4
v 1 1.1 -0.4
v 1 1.8 -0.4
v 1.3 2 -0.4
v 1.3 2.1 -0.4
v 1.4 1.9 -0.4
v 1.4 2 -0.4
v 1.4 2.1 -0.4
v 1.4 2.2 -0.4
v 1.5 1.8 -0.4
v 1.5 1.9 -0.4
v 1.5 2 -0.4
v 1.5 2.1 -0.4
v 1.6 1.7 -0.4
v 1.6 1.8 -0.4
v 1.6 1.9 -0.4
v 1.6 2 -0.4
v 1.7 1.6 -0.4
v 1.7 1.7 -0.4
v 1.7 1.8 -0.4
v 1.7 1.9 -0.4
v 1.8 1.5 -0.4
v 1.8 1.6 -0.4
v 1.8 1.7 -0.4
v 1.8 1.8 -0.4
v 1.9 0.8 -0.4
v 1.9 1.5 -0.4
v 1.9 1.6 -0.4
v 1.9 1.7 -0.4
v 2 0.8 -0.4
v 2 1.6 -0.4
v -2 0 -2
v -2 0.8 -2
v 2 0 -2
v 2 0.8 -2
v -2 0 2
v 2 0 2
v -2 0 1
v 2 0 1
v -2 0 -1
v 2 0 -1
v -2 0 -2
v 2 0 -2
v -0.9 1.7 0.4
v -0.8 1.7 0.4
v -0.6 1.7 0.4
v -0.5 1.7 0.4
v 0.5 1.7 0.4
v 0.6 1.7 0.4
v 0.8 1.7 0.4
v 0.9 1.7 0.4
v -0.9 1.7 -0.4
v -0.8 1.7 -0.4
v -0.6 1.7 -0.4
v -0.5 1.7 -0.4
v 0.5 1.7 -0.4
v 0.6 1.7 -0.4
v 0.8 1.7 -0.4
v 0.9 1.7 -0.4
v -0.8 1.8 0.4
v -0.6 1.8 0.4
v 0.6 1.8 0.4
v 0.8 1.8 0.4
v -0.8 1.8 -0.4
v -0.6 1.8 -0.4
v 0.6 1.8 -0.4
v 0.8 1.8 -0.4
v -2 0.8 2
v 2 0.8 2
v -2 0.8 1
v 2 0.8 1
v -2 0.8 0.4
v -1.9 0.8 0.4
v 1.9 0.8 0.4
v 2 0.8 0.4
v -2 0.8 -0.4
v -1.9 0.8 -0.4
v 1.9 0.8 -0.4
v 2 0.8 -0.4
v -2 0.8 -1
v 2 0.8 -1
v -2 0.8 -2
v 2 0.8 -2
v -0.9 1.2 0.4
v -0.5 1.2 0.4
v 0.5 1.2 0.4
v 0.9 1.2 0.4
v -0.9 1.2 -0.4
v -0.5 1.2 -0.4
v 0.5 1.2 -0.4
v 0.9 1.2 -0.4
v -2 1.6 0.4
v -1.9 1.6 0.4
v 1.9 1.6 0.4
v 2 1.6 0.4
v -2 1.6 -0.4
v -1.9 1.6 -0.4
v 1.9 1.6 -0.4
v 2 1.6 -0.4
v -1.9 1.7 0.4
v -1.8 1.7 0.4
v 1.8 1.7 0.4
v 1.9 1.7 0.4
v -1.9 1.7 -0.4
v -1.8 1.7 -0.4
v 1.8 1.7 -0.4
v 1.9 1.7 -0.4
v -1.8 1.8 0.4
v -1.7 1.8 0.4
v 1.7 1.8 0.4
v 1.8 1.8 0.4
v -1.8 1.8 -0.4
v -1.7 1.8 -0.4
v 1.7 1.8 -0.4
v 1.8 1.8 -0.4
v -1.7 1.9 0.4
v -1.6 1.9 0.4
v 1.6 1.9 0.4
v 1.7 1.9 0.4
v -1.7 1.9 -0.4
v -1.6 1.9 -0.4
v 1.6 1.9 -0.4
v 1.7 1.9 -0.4
v -1.6 2 0.4
v -1.5 2 0.4
v 1.5 2 0.4
v 1.6 2 0.4
v -1.6 2 -0.4
v -1.5 2 -0.4
v 1.5 2 -0.4
v 1.6 2 -0.4
v -1.5 2.1 0.4
v -1.4 2.1 0.4
v 1.4 2.1 0.4
v 1.5 2.1 0.4
v -1.5 2.1 -0.4
v -1.4 2.1 -0.4
v 1.4 2.1 -0.4
v 1.5 2.1 -0.4
v -1.4 2.2 0.4
v 1.4 2.2 0.4
v -1.4 2.2 -0.4
v 1.4 2.2 -0.4

# faces
f 5/1/1 2/1/1 1/1/1
f 6/2/1 3/2/1 2/2/1
f 6/1/1 2/1/1 5/1/1
f 7/2/1 3/2/1 6/2/1
f 8/2/1 3/2/1 7/2/1
f 9/1/1 4/1/1 3/1/1
f 9/2/1 3/2/1 8/2/1
f 10/1/1 4/1/1 9/1/1
f 11/3/1 8/3/1 7/3/1
f 12/3/1 8/3/1 11/3/1
f 15/3/1 14/3/1 13/3/1
f 16/3/1 14/3/1 15/3/1
f 19/3/1 