# MagicaVoxel @ Ephtracy

# group
o 

# material
mtllib Wall.mtl
usemtl palette

# normals
vn -1 0 0
vn 1 0 0
vn 0 0 1
vn 0 0 -1
vn 0 -1 0
vn 0 1 0

# texcoords
vt 0.958984 0.5
vt 0.970703 0.5
vt 0.978516 0.5
vt 0.986328 0.5

# verts
v -2 0 2
v -2 0 1
v -2 0 -1
v -2 0 -2
v -2 0.8 2
v -2 0.8 1
v -2 0.8 0.4
v -2 0.8 -0.4
v -2 0.8 -1
v -2 0.8 -2
v -2 1.6 0.4
v -2 1.6 -0.4
v -1.9 1.6 0.4
v -1.9 1.6 -0.4
v -1.9 1.7 0.4
v -1.9 1.7 -0.4
v -1.8 1.7 0.4
v -1.8 1.7 -0.4
v -1.8 1.8 0.4
v -1.8 1.8 -0.4
v -1.7 1.8 0.4
v -1.7 1.8 -0.4
v -1.7 1.9 0.4
v -1.7 1.9 -0.4
v -1.6 1.9 0.4
v -1.6 1.9 -0.4
v -1.6 2 0.4
v -1.6 2 -0.4
v -1.5 2 0.4
v -1.5 2 -0.4
v -1.5 2.1 0.4
v -1.5 2.1 -0.4
v -1.4 2.1 0.4
v -1.4 2.1 -0.4
v -1.4 2.2 0.4
v -1.4 2.2 -0.4
v -0.6 1.7 0.4
v -0.6 1.7 -0.4
v -0.6 1.8 0.4
v -0.6 1.8 -0.4
v -0.5 1.2 0.4
v -0.5 1.2 -0.4
v -0.5 1.7 0.4
v -0.5 1.7 -0.4
v 0.8 1.7 0.4
v 0.8 1.7 -0.4
v 0.8 1.8 0.4
v 0.8 1.8 -0.4
v 0.9 1.2 0.4
v 0.9 1.2 -0.4
v 0.9 1.7 0.4
v 0.9 1.7 -0.4
v -0.9 1.2 0.4
v -0.9 1.2 -0.4
v -0.9 1.7 0.4
v -0.9 1.7 -0.4
v -0.8 1.7 0.4
v -0.8 1.7 -0.4
v -0.8 1.8 0.4
v -0.8 1.8 -0.4
v 0.5 1.2 0.4
v 0.5 1.2 -0.4
v 0.5 1.7 0.4
v 0.5 1.7 -0.4
v 0.6 1.7 0.4
v 0.6 1.7 -0.4
v 0.6 1.8 0.4
v 0.6 1.8 -0.4
v 1.4 2.1 0.4
v 1.4 2.1 -0.4
v 1.4 2.2 0.4
v 1.4 2.2 -0.4
v 1.5 2 0.4
v 1.5 2 -0.4
v 1.5 2.1 0.4
v 1.5 2.1 -0.4
v 1.6 1.9 0.4
v 1.6 1.9 -0.4
v 1.6 2 0.4
v 1.6 2 -0.4
v 1.7 1.8 0.4
v 1.7 1.8 -0.4
v 1.7 1.9 0.4
v 1.7 1.9 -0.4
v 1.8 1.7 0.4
v 1.8 1.7 -0.4
v 1.8 1.8 0.4
v 1.8 1.8 -0.4
v 1.9 1.6 0.4
v 1.9 1.6 -0.4
v 1.9 1.7 0.4
v 1.9 1.7 -0.4
v 2 0 2
v 2 0 1
v 2 0 -1
v 2 0 -2
v 2 0.8 2
v 2 0.8 1
v 2 0.8 0.4
v 2 0.8 -0.4
v 2 0.8 -1
v 2 0.8 -2
v 2 1.6 0.4
v 2 1.6 -0.4
v -2 0 2
v -2 0.8 2
v 2 0 2
v 2 0.8 2
v -2 0.8 0.4
v -2 1.6 0.4
v -1.9 0.8 0.4
v -1.9 1.5 0.4
v -1.9 1.6 0.4
v -1.9 1.7 0.4
v -1.8 1.5 0.4
v -1.8 1.6 0.4
v -1.8 1.7 0.4
v -1.8 1.8 0.4
v -1.7 1.6 0.4
v -1.7 1.7 0.4
v -1.7 1.8 0.4
v -1.7 1.9 0.4
v -1.6 1.7 0.4
v -1.6 1.8 0.4
v -1.6 1.9 0.4
v -1.6 2 0.4
v -1.5 1.8 0.4
v -1.5 1.9 0.4
v -1.5 2 0.4
v -1.5 2.1 0.4
v -1.4 1.9 0.4
v -1.4 2 0.4
v -1.4 2.1 0.4
v -1.4 2.2 0.4
v -1.3 2 0.4
v -1.3 2.1 0.4
v -1 1.1 0.4
v -1 1.8 0.4
v -0.9 1.2 0.4
v -0.9 1.7 0.4
v -0.9 1.8 0.4
v -0.9 1.9 0.4
v -0.8 1.7 0.4
v -0.8 1.8 0.4
v -0.6 1.7 0.4
v -0.6 1.8 0.4
v -0.5 1.2 0.4
v -0.5 1.7 0.4
v -0.5 1.8 0.4
v -0.5 1.9 0.4
v -0.4 1.1 0.4
v -0.4 1.8 0.4
v 0.4 1.1 0.4
v 0.4 1.8 0.4
v 0.5 1.2 0.4
v 0.5 1.7 0.4
v 0.5 1.8 0.4
v 0.5 1.9 0.4
v 0.6 1.7 0.4
v 0.6 1.8 0.4
v 0.8 1.7 0.4
v 0.8 1.8 0.4
v 0.9 1.2 0.4
v 0.9 1.7 0.4
v 0.9 1.8 0.4
v 0.9 1.9 0.4
v 1 1.1 0.4
v 1 1.8 0.4
v 1.3 2 0.4
v 1.3 2.1 0.4
v 1.4 1.9 0.4
v 1.4 2 0.4
v 1.4 2.1 0.4
v 1.4 2.2 0.4
v 1.5 1.8 0.4
v 1.5 1.9 0.4
v 1.5 2 0.4
v 1.5 2.1 0.4
v 1.6 1.7 0.4
v 1.6 1.8 0.4
v 1.6 1.9 0.4
v 1.6 2 0.4
v 1.7 1.6 0.4
v 1.7 1.7 0.4
v 1.7 1.8 0.4
v 1.7 1.9 0.4
v 1.8 1.5 0.4
v 1.8 1.6 0.4
v 1.8 1.7 0.4
v 1.8 1.8 0.4
v 1.9 0.8 0.4
v 1.9 1.5 0.4
v 1.9 1.6 0.4
v 1.9 1.7 0.4
v 2 0.8 0.4
v 2 1.6 0.4
v -2 0.8 -0.4
v -2 1.6 -0.4
v -1.9 0.8 -0.4
v -1.9 1.5 -0.4
v -1.9 1.6 -0.4
v -1.9 1.7 -0.4
v -1.8 1.5 -0.4
v -1.8 1.6 -0.4
v -1.8 1.7 -0.4
v -1.8 1.8 -0.4
v -1.7 1.6 -0.4
v -1.7 1.7 -0.4
v -1.7 1.8 -0.4
v -1.7 1.9 -0.4
v -1.6 1.7 -0.4
v -1.6 1.8 -0.4
v -1.6 1.9 -0.4
v -1.6 2 -0.4
v -1.5 1.8 -0.4
v -1.5 1.9 -0.4
v -1.5 2 -0.4
v -1.5 2.1 -0.4
v -1.4 1.9 -0.4
v -1.4 2 -0.4
v -1.4 2.1 -0.4
v -1.4 2.2 -0.4
v -1.3 2 -0.4
v -1.3 2.1 -0.4
v -1 1.1 -0.4
v -1 1.8 -0.4
v -0.9 1.2 -0.4
v -0.9 1.7 -0.4
v -0.9 1.8 -0.4
v -0.9 1.9 -0.4
v -0.8 1.7 -0.4
v -0.8 1.8 -0.4
v -0.6 1.7 -0.4
v -0.6 1.8 -0.4
v -0.5 1.2 -0.4
v -0.5 1.7 -0.4
v -0.5 1.8 -0.4
v -0.5 1.9 -0.4
v -0.4 1.1 -0.4
v -0.4 1.8 -0.4
v 0.4 1.1 -0.4
v 0.4 1.8 -0.4
v 0.5 1.2 -0.4
v 0.5 1.7 -0.4
v 0.5 1.8 -0.4
v 0.5 1.9 -0.4
v 0.6 1.7 -0.4
v 0.6 1.8 -0.4
v 0.8 1.7 -0.4
v 0.8 1.8 -0.4
v 0.9 1.2 -0.4
v 0.9 1.7 -0.4
v 0.9 1.8 -0.4
v 0.9 1.9 -0.4
v 1 1.1 -0.4
v 1 1.8 -0.4
v 1.3 2 -0.4
v 1.3 2.1 -0.4
v 1.4 1.9 -0.4
v 1.4 2 -0.4
v 1.4 2.1 -0.4
v 1.4 2.2 -0.4
v 1.5 1.8 -0.4
v 1.5 1.9 -0.4
v 1.5 2 -0.4
v 1.5 2.1 -0.4
v 1.6 1.7 -0.4
v 1.6 1.8 -0.4
v 1.6 1.9 -0.4
v 1.6 2 -0.4
v 1.7 1.6 -0.4
v 1.7 1.7 -0.4
v 1.7 1.8 -0.4
v 1.7 1.9 -0.4
v 1.8 1.5 -0.4
v 1.8 1.6 -0.4
v 1.8 1.7 -0.4
v 1.8 1.8 -0.4
v 1.9 0.8 -0.4
v 1.9 1.5 -0.4
v 1.9 1.6 -0.4
v 1.9 1.7 -0.4
v 2 0.8 -0.4
v 2 1.6 -0.4
v -2 0 -2
v -2 0.8 -2
v 2 0 -2
v 2 0.8 -2
v -2 0 2
v 2 0 2
v -2 0 1
v 2 0 1
v -2 0 -1
v 2 0 -1
v -2 0 -2
v 2 0 -2
v -0.9 1.7 0.4
v -0.8 1.7 0.4
v -0.6 1.7 0.4
v -0.5 1.7 0.4
v 0.5 1.7 0.4
v 0.6 1.7 0.4
v 0.8 1.7 0.4
v 0.9 1.7 0.4
v -0.9 1.7 -0.4
v -0.8 1.7 -0.4
v -0.6 1.7 -0.4
v -0.5 1.7 -0.4
v 0.5 1.7 -0.4
v 0.6 1.7 -0.4
v 0.8 1.7 -0.4
v 0.9 1.7 -0.4
v -0.8 1.8 0.4
v -0.6 1.8 0.4
v 0.6 1.8 0.4
v 0.8 1.8 0.4
v -0.8 1.8 -0.4
v -0.6 1.8 -0.4
v 0.6 1.8 -0.4
v 0.8 1.8 -0.4
v -2 0.8 2
v 2 0.8 2
v -2 0.8 1
v 2 0.8 1
v -2 0.8 0.4
v -1.9 0.8 0.4
v 1.9 0.8 0.4
v 2 0.8 0.4
v -2 0.8 -0.4
v -1.9 0.8 -0.4
v 1.9 0.8 -0.4
v 2 0.8 -0.4
v -2 0.8 -1
v 2 0.8 -1
v -2 0.8 -2
v 2 0.8 -2
v -0.9 1.2 0.4
v -0.5 1.2 0.4
v 0.5 1.2 0.4
v 0.9 1.2 0.4
v -0.9 1.2 -0.4
v -0.5 1.2 -0.4
v 0.5 1.2 -0.4
v 0.9 1.2 -0.4
v -2 1.6 0.4
v -1.9 1.6 0.4
v 1.9 1.6 0.4
v 2 1.6 0.4
v -2 1.6 -0.4
v -1.9 1.6 -0.4
v 1.9 1.6 -0.4
v 2 1.6 -0.4
v -1.9 1.7 0.4
v -1.8 1.7 0.4
v 1.8 1.7 0.4
v 1.9 1.7 0.4
v -1.9 1.7 -0.4
v -1.8 1.7 -0.4
v 1.8 1.7 -0.4
v 1.9 1.7 -0.4
v -1.8 1.8 0.4
v -1.7 1.8 0.4
v 1.7 1.8 0.4
v 1.8 1.8 0.4
v -1.8 1.8 -0.4
v -1.7 1.8 -0.4
v 1.7 1.8 -0.4
v 1.8 1.8 -0.4
v -1.7 1.9 0.4
v -1.6 1.9 0.4
v 1.6 1.9 0.4
v 1.7 1.9 0.4
v -1.7 1.9 -0.4
v -1.6 1.9 -0.4
v 1.6 1.9 -0.4
v 1.7 1.9 -0.4
v -1.6 2 0.4
v -1.5 2 0.4
v 1.5 2 0.4
v 1.6 2 0.4
v -1.6 2 -0.4
v -1.5 2 -0.4
v 1.5 2 -0.4
v 1.6 2 -0.4
v -1.5 2.1 0.4
v -1.4 2.1 0.4
v 1.4 2.1 0.4
v 1.5 2.1 0.4
v -1.5 2.1 -0.4
v -1.4 2.1 -0.4
v 1.4 2.1 -0.4
v 1.5 2.1 -0.4
v -1.4 2.2 0.4
v 1.4 2.2 0.4
v -1.4 2.2 -0.4
v 1.4 2.2 -0.4

# faces
f 5/1/1 2/1/1 1/1/1
f 6/2/1 3/2/1 2/2/1
f 6/1/1 2/1/1 5/1/1
f 7/2/1 3/2/1 6/2/1
f 8/2/1 3/2/1 7/2/1
f 9/1/1 4/1/1 3/1/1
f 9/2/1 3/2/1 8/2/1
f 10/1/1 4/1/1 9/1/1
f 11/3/1 8/3/1 7/3/1
f 12/3/1 8/3/1 11/3/1
f 15/3/1 14/3/1 13/3/1
f 16/3/1 14/3/1 15/3/1
f 19/3/1 18/3/1 17/3/1
f 20/3/1 18/3/1 19/3/1
f 23/3/1 22/3/1 21/3/1
f 24/3/1 22/3/1 23/3/1
f 27/3/1 26/3/1 25/3/1
f 28/3/1 26/3/1 27/3/1
f 31/3/1 30/3/1 29/3/1
f 32/3/1 30/3/1 31/3/1
f 35/3/1 34/3/1 33/3/1
f 36/3/1 34/3/1 35/3/1
f 39/3/1 38/3/1 37/3/1
f 40/3/1 38/3/1 39/3/1
f 43/3/1 42/3/1 41/3/1
f 44/3/1 42/3/1 43/3/1
f 47/3/1 46/3/1 45/3/1
f 48/3/1 46/3/1 47/3/1
f 51/3/1 50/3/1 49/3/1
f 52/3/1 50/3/1 51/3/1
f 53/3/2 54/3/2 55/3/2
f 55/3/2 54/3/2 56/3/2
f 57/3/2 58/3/2 59/3/2
f 59/3/2 58/3/2 60/3/2
f 61/3/2 62/3/2 63/3/2
f 63/3/2 62/3/2 64/3/2
f 65/3/2 66/3/2 67/3/2
f 67/3/2 66/3/2 68/3/2
f 69/3/2 70/3/2 71/3/2
f 71/3/2 70/3/2 72/3/2
f 73/3/2 74/3/2 75/3/2
f 75/3/2 74/3/2 76/3/2
f 77/3/2 78/3/2 79/3/2
f 79/3/2 78/3/2 80/3/2
f 81/3/2 82/3/2 83/3/2
f 83/3/2 82/3/2 84/3/2
f 85/3/2 86/3/2 87/3/2
f 87/3/2 86/3/2 88/3/2
f 89/3/2 90/3/2 91/3/2
f 91/3/2 90/3/2 92/3/2
f 93/1/2 94/1/2 97/1/2
f 94/2/2 95/2/2 98/2/2
f 97/1/2 94/1/2 98/1/2
f 98/2/2 95/2/2 99/2/2
f 99/2/2 95/2/2 100/2/2
f 95/1/2 96/1/2 101/1/2
f 100/2/2 95/2/2 101/2/2
f 101/1/2 96/1/2 102/1/2
f 99/3/2 100/3/2 103/3/2
f 103/3/2 100/3/2 104/3/2
f 107/1/3 106/1/3 105/1/3
f 108/1/3 106/1/3 107/1/3
f 111/3/3 110/3/3 109/3/3
f 112/3/3 110/3/3 111/3/3
f 113/3/3 110/3/3 112/3/3
f 115/4/3 112/4/3 111/4/3
f 115/3/3 114/3/3 113/3/3
f 115/3/3 113/3/3 112/3/3
f 116/3/3 114/3/3 115/3/3
f 117/3/3 114/3/3 116/3/3
f 119/4/3 116/4/3 115/4/3
f 119/3/3 118/3/3 117/3/3
f 119/3/3 117/3/3 116/3/3
f 120/3/3 118/3/3 119/3/3
f 121/3/3 118/3/3 120/3/3
f 123/4/3 120/4/3 119/4/3
f 123/3/3 122/3/3 121/3/3
f 123/3/3 121/3/3 120/3/3
f 124/3/3 122/3/3 123/3/3
f 125/3/3 122/3/3 124/3/3
f 127/4/3 124/4/3 123/4/3
f 127/3/3 126/3/3 125/3/3
f 127/3/3 125/3/3 124/3/3
f 128/3/3 126/3/3 127/3/3
f 129/3/3 126/3/3 128/3/3
f 131/4/3 128/4/3 127/4/3
f 131/3/3 130/3/3 129/3/3
f 131/3/3 129/3/3 128/3/3
f 132/3/3 130/3/3 131/3/3
f 133/3/3 130/3/3 132/3/3
f 135/4/3 132/4/3 131/4/3
f 135/3/3 134/3/3 133/3/3
f 135/3/3 133/3/3 132/3/3
f 136/3/3 134/3/3 135/3/3
f 137/4/3 115/4/3 111/4/3
f 137/4/3 119/4/3 115/4/3
f 137/4/3 136/4/3 135/4/3
f 137/4/3 135/4/3 131/4/3
f 137/4/3 131/4/3 127/4/3
f 137/4/3 127/4/3 123/4/3
f 137/4/3 123/4/3 119/4/3
f 138/4/3 136/4/3 137/4/3
f 139/3/3 138/3/3 137/3/3
f 140/3/3 138/3/3 139/3/3
f 141/4/3 136/4/3 138/4/3
f 141/3/3 138/3/3 140/3/3
f 142/4/3 136/4/3 141/4/3
f 143/3/3 141/3/3 140/3/3
f 143/3/3 142/3/3 141/3/3
f 144/3/3 142/3/3 143/3/3
f 146/3/3 142/3/3 144/3/3
f 147/3/3 139/3/3 137/3/3
f 148/3/3 146/3/3 145/3/3
f 149/3/3 142/3/3 146/3/3
f 149/3/3 146/3/3 148/3/3
f 150/4/3 136/4/3 142/4/3
f 150/3/3 142/3/3 149/3/3
f 151/4/3 137/4/3 111/4/3
f 151/3/3 149/3/3 148/3/3
f 151/3/3 147/3/3 137/3/3
f 151/3/3 148/3/3 147/3/3
f 152/4/3 150/4/3 149/4/3
f 152/3/3 149/3/3 151/3/3
f 153/4/3 151/4/3 111/4/3
f 153/4/3 152/4/3 151/4/3
f 154/4/3 150/4/3 152/4/3
f 154/4/3 152/4/3 153/4/3
f 155/3/3 154/3/3 153/3/3
f 156/3/3 154/3/3 155/3/3
f 157/4/3 150/4/3 154/4/3
f 157/3/3 154/3/3 156/3/3
f 158/4/3 136/4/3 150/4/3
f 158/4/3 150/4/3 157/4/3
f 159/3/3 157/3/3 156/3/3
f 159/3/3 158/3/3 157/3/3
f 160/3/3 158/3/3 159/3/3
f 162/3/3 158/3/3 160/3/3
f 163/3/3 155/3/3 153/3/3
f 164/3/3 162/3/3 161/3/3
f 165/3/3 158/3/3 162/3/3
f 165/3/3 162/3/3 164/3/3
f 166/4/3 136/4/3 158/4/3
f 166/3/3 158/3/3 165/3/3
f 167/3/3 165/3/3 164/3/3
f 167/4/3 153/4/3 111/4/3
f 167/3/3 163/3/3 153/3/3
f 167/3/3 164/3/3 163/3/3
f 168/4/3 166/4/3 165/4/3
f 168/3/3 165/3/3 167/3/3
f 169/4/3 136/4/3 166/4/3
f 169/4/3 166/4/3 168/4/3
f 169/4/3 168/4/3 167/4/3
f 170/3/3 134/3/3 136/3/3
f 170/4/3 136/4/3 169/4/3
f 171/4/3 169/4/3 167/4/3
f 172/3/3 170/3/3 169/3/3
f 172/4/3 169/4/3 171/4/3
f 173/3/3 134/3/3 170/3/3
f 173/3/3 170/3/3 172/3/3
f 174/3/3 134/3/3 173/3/3
f 175/4/3 171/4/3 167/4/3
f 176/3/3 172/3/3 171/3/3
f 176/4/3 171/4/3 175/4/3
f 176/3/3 173/3/3 172/3/3
f 177/3/3 173/3/3 176/3/3
f 178/3/3 173/3/3 177/3/3
f 179/4/3 175/4/3 167/4/3
f 180/3/3 176/3/3 175/3/3
f 180/4/3 175/4/3 179/4/3
f 180/3/3 177/3/3 176/3/3
f 181/3/3 177/3/3 180/3/3
f 182/3/3 177/3/3 181/3/3
f 183/4/3 179/4/3 167/4/3
f 184/3/3 180/3/3 179/3/3
f 184/4/3 179/4/3 183/4/3
f 184/3/3 181/3/3 180/3/3
f 185/3/3 181/3/3 184/3/3
f 186/3/3 181/3/3 185/3/3
f 187/4/3 183/4/3 167/4/3
f 188/3/3 184/3/3 183/3/3
f 188/4/3 183/4/3 187/4/3
f 188/3/3 185/3/3 184/3/3
f 189/3/3 185/3/3 188/3/3
f 190/3/3 185/3/3 189/3/3
f 191/4/3 167/4/3 111/4/3
f 191/4/3 187/4/3 167/4/3
f 192/3/3 189/3/3 188/3/3
f 192/4/3 187/4/3 191/4/3
f 192/3/3 188/3/3 187/3/3
f 193/3/3 189/3/3 192/3/3
f 194/3/3 189/3/3 193/3/3
f 195/3/3 192/3/3 191/3/3
f 195/3/3 193/3/3 192/3/3
f 196/3/3 193/3/3 195/3/3
f 197/3/4 198/3/4 199/3/4
f 199/3/4 198/3/4 200/3/4
f 200/3/4 198/3/4 201/3/4
f 199/4/4 200/4/4 203/4/4
f 201/3/4 202/3/4 203/3/4
f 200/3/4 201/3/4 203/3/4
f 203/3/4 202/3/4 204/3/4
f 204/3/4 202/3/4 205/3/4
f 203/4/4 204/4/4 207/4/4
f 205/3/4 206/3/4 207/3/4
f 204/3/4 205/3/4 207/3/4
f 207/3/4 206/3/4 208/3/4
f 208/3/4 206/3/4 209/3/4
f 207/4/4 208/4/4 211/4/4
f 209/3/4 210/3/4 211/3/4
f 208/3/4 209/3/4 211/3/4
f 211/3/4 210/3/4 212/3/4
f 212/3/4 210/3/4 213/3/4
f 211/4/4 212/4/4 215/4/4
f 213/3/4 214/3/4 215/3/4
f 212/3/4 213/3/4 215/3/4
f 215/3/4 214/3/4 216/3/4
f 216/3/4 214/3/4 217/3/4
f 215/4/4 216/4/4 219/4/4
f 217/3/4 218/3/4 219/3/4
f 216/3/4 217/3/4 219/3/4
f 219/3/4 218/3/4 220/3/4
f 220/3/4 218/3/4 221/3/4
f 219/4/4 220/4/4 223/4/4
f 221/3/4 222/3/4 223/3/4
f 220/3/4 221/3/4 223/3/4
f 223/3/4 222/3/4 224/3/4
f 199/4/4 203/4/4 225/4/4
f 203/4/4 207/4/4 225/4/4
f 223/4/4 224/4/4 225/4/4
f 219/4/4 223/4/4 225/4/4
f 215/4/4 219/4/4 225/4/4
f 211/4/4 215/4/4 225/4/4
f 207/4/4 211/4/4 225/4/4
f 225/4/4 224/4/4 226/4/4
f 225/3/4 226/3/4 227/3/4
f 227/3/4 226/3/4 228/3/4
f 226/4/4 224/4/4 229/4/4
f 228/3/4 226/3/4 229/3/4
f 229/4/4 224/4/4 230/4/4
f 228/3/4 229/3/4 231/3/4
f 229/3/4 230/3/4 231/3/4
f 231/3/4 230/3/4 232/3/4
f 232/3/4 230/3/4 234/3/4
f 225/3/4 227/3/4 235/3/4
f 233/3/4 234/3/4 236/3/4
f 234/3/4 230/3/4 237/3/4
f 236/3/4 234/3/4 237/3/4
f 230/4/4 224/4/4 238/4/4
f 237/3/4 230/3/4 238/3/4
f 199/4/4 225/4/4 239/4/4
f 236/3/4 237/3/4 239/3/4
f 225/3/4 235/3/4 239/3/4
f 235/3/4 236/3/4 239/3/4
f 237/4/4 238/4/4 240/4/4
f 239/3/4 237/3/4 240/3/4
f 199/4/4 239/4/4 241/4/4
f 239/4/4 240/4/4 241/4/4
f 240/4/4 238/4/4 242/4/4
f 241/4/4 240/4/4 242/4/4
f 241/3/4 242/3/4 243/3/4
f 243/3/4 242/3/4 244/3/4
f 242/4/4 238/4/4 245/4/4
f 244/3/4 242/3/4 245/3/4
f 238/4/4 224/4/4 246/4/4
f 245/4/4 238/4/4 246/4/4
f 244/3/4 245/3/4 247/3/4
f 245/3/4 246/3/4 247/3/4
f 247/3/4 246/3/4 248/3/4
f 248/3/4 246/3/4 250/3/4
f 241/3/4 243/3/4 251/3/4
f 249/3/4 250/3/4 252/3/4
f 250/3/4 246/3/4 253/3/4
f 252/3/4 250/3/4 253/3/4
f 246/4/4 224/4/4 254/4/4
f 253/3/4 246/3/4 254/3/4
f 252/3/4 253/3/4 255/3/4
f 199/4/4 241/4/4 255/4/4
f 241/3/4 251/3/4 255/3/4
f 251/3/4 252/3/4 255/3/4
f 253/4/4 254/4/4 256/4/4
f 255/3/4 253/3/4 256